<svg width="16" height="16" viewBox="0 0 16 16" fill="none" xmlns="http://www.w3.org/2000/svg">
<path d="M3.725 1.06357C2.94557 1.20853 2.37194 1.46493 1.91843 1.91843C1.46493 2.37194 1.20853 2.94557 1.06357 3.725M12.275 1.06357C13.0544 1.20853 13.6281 1.46493 14.0816 1.91843C14.5351 2.37194 14.7915 2.94557 14.9364 3.725M9.425 0.878716C8.98669 0.875 8.51293 0.875 8 0.875C7.48707 0.875 7.0133 0.875 6.57499 0.878716M15.1213 6.575C15.125 7.01331 15.125 7.48707 15.125 8C15.125 8.51295 15.125 8.98673 15.1213 9.42506M0.878716 6.575C0.875 7.01331 0.875 7.48707 0.875 8C0.875 8.51295 0.875 8.98673 0.878717 9.42506M1.06357 12.275C1.20853 13.0544 1.46493 13.6281 1.91843 14.0816C2.37194 14.5351 2.94557 14.7915 3.725 14.9364M14.9364 12.275C14.7915 13.0544 14.5351 13.6281 14.0816 14.0816C13.6281 14.5351 13.0544 14.7915 12.275 14.9364M9.425 15.1213C8.98669 15.125 8.51293 15.125 8 15.125C7.48712 15.125 7.0134 15.125 6.57512 15.1213" stroke="white" stroke-width="1.5" stroke-linecap="round" stroke-linejoin="round"/>
</svg>
