<svg width="16" height="16" viewBox="0 0 16 16" fill="none" xmlns="http://www.w3.org/2000/svg">
<path d="M8 10.25L8 11.375" stroke="white" stroke-width="1.25" stroke-linecap="round" stroke-linejoin="round"/>
<path d="M1.25 7.25L1.36466 9.39744C1.48785 12.1077 1.54945 13.4629 2.41914 14.2939C3.28882 15.125 4.64537 15.125 7.35847 15.125H8.64153C11.3546 15.125 12.7112 15.125 13.5809 14.2939C14.4505 13.4629 14.5121 12.1077 14.6353 9.39744L14.75 7.25" stroke="white" stroke-width="1.25" stroke-linecap="round" stroke-linejoin="round"/>
<path d="M1.13539 6.83229C2.40986 9.25583 5.2844 10.25 8 10.25C10.7156 10.25 13.5901 9.25583 14.8646 6.83229C15.473 5.67542 15.0123 3.5 13.514 3.5H2.486C0.987674 3.5 0.527021 5.67542 1.13539 6.83229Z" stroke="white" stroke-width="1.25"/>
<path d="M11 3.5L10.9338 3.2682C10.6038 2.11317 10.4388 1.53565 10.0459 1.20533C9.6531 0.875 9.1313 0.875 8.08772 0.875H7.91228C6.8687 0.875 6.3469 0.875 5.95407 1.20533C5.56124 1.53565 5.39624 2.11317 5.06623 3.2682L5 3.5" stroke="white" stroke-width="1.25"/>
</svg>
