<svg width="16" height="18" viewBox="0 0 16 18" fill="none" xmlns="http://www.w3.org/2000/svg">
<path d="M12.3331 10.2374L12.927 11.4351C13.008 11.6018 13.224 11.7617 13.4062 11.7924L14.4827 11.9727C15.1711 12.0884 15.3331 12.592 14.8371 13.0887L14.0001 13.9325C13.8584 14.0754 13.7808 14.3511 13.8247 14.5484L14.0643 15.593C14.2532 16.4198 13.8179 16.7396 13.0924 16.3075L12.0834 15.7053C11.9011 15.5964 11.6008 15.5964 11.4152 15.7053L10.4062 16.3075C9.68399 16.7396 9.24529 16.4164 9.43427 15.593L9.67387 14.5484C9.71774 14.3511 9.64012 14.0754 9.49839 13.9325L8.66148 13.0887C8.16879 12.592 8.3274 12.0884 9.01582 11.9727L10.0923 11.7924C10.2712 11.7617 10.4872 11.6018 10.5681 11.4351L11.1621 10.2374C11.486 9.58753 12.0125 9.58753 12.3331 10.2374Z" stroke="white" stroke-width="1.25" stroke-linecap="round" stroke-linejoin="round"/>
<path d="M12.5 1.5V3M3.5 1.5V3" stroke="white" stroke-width="1.25" stroke-linecap="round" stroke-linejoin="round"/>
<path d="M15.1248 8.625C15.1218 5.72523 15.07 4.22102 14.1859 3.26523C13.2468 2.25 11.7354 2.25 8.7125 2.25H7.2875C4.26462 2.25 2.75318 2.25 1.81409 3.26523C0.875 4.28046 0.875 5.91445 0.875 9.18243V9.56757C0.875 12.8355 0.875 14.4695 1.81409 15.4848C2.70945 16.4527 4.12511 16.4978 6.875 16.4999" stroke="white" stroke-width="1.25" stroke-linecap="round" stroke-linejoin="round"/>
<path d="M1.25 6H14.75" stroke="white" stroke-width="1.25" stroke-linecap="round" stroke-linejoin="round"/>
</svg>
