<svg width="18" height="18" viewBox="0 0 18 18" fill="none" xmlns="http://www.w3.org/2000/svg">
<path d="M8.99997 16.5C4.85784 16.5 1.5 13.1421 1.5 9C1.5 4.85786 4.85786 1.5 9 1.5C12.3582 1.5 15.1693 3.70717 16.125 6.75H14.25" stroke="white" stroke-width="1.5" stroke-linecap="round" stroke-linejoin="round"/>
<path d="M9 6V9L10.5 10.5" stroke="white" stroke-width="1.5" stroke-linecap="round" stroke-linejoin="round"/>
<path d="M16.4663 9.75C16.4886 9.50315 16.5 9.25297 16.5 9M11.25 16.5C11.5062 16.4157 11.7565 16.3173 12 16.2058M15.593 12.75C15.7376 12.4713 15.8666 12.1824 15.9788 11.8847M13.6443 15.1719C13.9027 14.9581 14.1473 14.7269 14.3766 14.4799" stroke="white" stroke-width="1.5" stroke-linecap="round" stroke-linejoin="round"/>
</svg>
