<svg width="14" height="18" viewBox="0 0 14 18" fill="none" xmlns="http://www.w3.org/2000/svg">
<path d="M3.57143 2.52151C6.54966 0.498067 10.852 1.59324 12.4226 4.81352M6.14286 16.4427C9.68793 16.9366 13 14.1714 13 10.6577V7.75M3.57143 15.4544C2.01701 14.3983 1 12.6437 1 10.6577V7.31818C1 6.42963 1.20358 5.58741 1.56778 4.83333" stroke="white" stroke-width="1.5" stroke-linecap="round" stroke-linejoin="round"/>
<path d="M10 10.35C10 12.0897 8.65685 13.5 7 13.5C5.34315 13.5 4 12.0897 4 10.35V7.65C4 7.16688 4.10358 6.70916 4.2887 6.3M7 4.5C8.65685 4.5 10 5.9103 10 7.65" stroke="white" stroke-width="1.5" stroke-linecap="round" stroke-linejoin="round"/>
<path d="M7 7.875L7 10.125" stroke="white" stroke-width="1.5" stroke-linecap="round" stroke-linejoin="round"/>
</svg>
