<svg width="18" height="18" viewBox="0 0 18 18" fill="none" xmlns="http://www.w3.org/2000/svg">
<path d="M16.5 9C16.5 4.85786 13.1421 1.5 9 1.5C4.85786 1.5 1.5 4.85786 1.5 9C1.5 13.1421 4.85786 16.5 9 16.5C13.1421 16.5 16.5 13.1421 16.5 9Z" stroke="white" stroke-width="1.5"/>
<path d="M15 4.27424C14.299 4.32477 13.401 4.59618 12.7784 5.40208C11.6538 6.85771 10.5293 6.97917 9.77954 6.49396C8.65496 5.76615 9.6 4.58727 8.2801 3.94661C7.41985 3.52907 7.2999 2.39284 7.77869 1.5" stroke="white" stroke-width="1.5" stroke-linejoin="round"/>
<path d="M1.5 8.25C2.07187 8.74659 2.87284 9.20114 3.81656 9.20114C5.76632 9.20114 6.15628 9.57368 6.15628 11.0638C6.15628 12.554 6.15628 12.554 6.54623 13.6716C6.79988 14.3986 6.88854 15.1256 6.38295 15.75" stroke="white" stroke-width="1.5" stroke-linejoin="round"/>
<path d="M16.5 10.0893C15.8347 9.70581 15 9.54809 14.1551 10.1554C12.5382 11.3174 11.4235 10.3545 10.9214 11.3167C10.1824 12.7331 12.8218 13.1783 10.5 16.5" stroke="white" stroke-width="1.5" stroke-linejoin="round"/>
</svg>
