<svg width="16" height="18" viewBox="0 0 16 18" fill="none" xmlns="http://www.w3.org/2000/svg">
<path d="M10.625 8.25C10.625 9.69975 9.44975 10.875 8 10.875C6.55025 10.875 5.375 9.69975 5.375 8.25C5.375 6.80025 6.55025 5.625 8 5.625C9.44975 5.625 10.625 6.80025 10.625 8.25Z" stroke="black" stroke-opacity="0.88" stroke-width="1.5"/>
<path d="M8 1.5C11.6529 1.5 14.75 4.52473 14.75 8.19432C14.75 11.9224 11.6025 14.5385 8.69525 16.3175C8.48338 16.4371 8.24379 16.5 8 16.5C7.75621 16.5 7.51662 16.4371 7.30475 16.3175C4.40292 14.5212 1.25 11.9352 1.25 8.19432C1.25 4.52473 4.34708 1.5 8 1.5Z" stroke="black" stroke-opacity="0.88" stroke-width="1.5"/>
</svg>
