<svg width="16" height="16" viewBox="0 0 16 16" fill="none" xmlns="http://www.w3.org/2000/svg">
<path d="M10.25 12.2187C10.1948 13.6077 9.03732 14.787 7.48673 14.7491C7.12599 14.7403 6.6801 14.6145 5.78834 14.363C3.64221 13.7576 1.77916 12.7403 1.33217 10.4612C1.25 10.0422 1.25 9.57079 1.25 8.62794L1.25 7.37206C1.25 6.42921 1.25 5.95778 1.33217 5.53884C1.77916 3.25974 3.64221 2.24237 5.78834 1.63702C6.6801 1.38548 7.12598 1.25972 7.48673 1.25089C9.03732 1.21296 10.1948 2.3923 10.25 3.78125" stroke="white" stroke-width="1.5" stroke-linecap="round"/>
<path d="M14.75 8H6.5M14.75 8C14.75 7.47483 13.2543 6.49365 12.875 6.125M14.75 8C14.75 8.52517 13.2543 9.50635 12.875 9.875" stroke="white" stroke-width="1.5" stroke-linecap="round" stroke-linejoin="round"/>
</svg>
