<svg width="15" height="18" viewBox="0 0 15 18" fill="none" xmlns="http://www.w3.org/2000/svg">
<path d="M14.207 12.6265C13.7148 9.66494 12.1824 7.4596 10.8502 6.16425C10.4626 5.78732 10.2687 5.59885 9.84059 5.42442C9.41243 5.25 9.04439 5.25 8.30833 5.25H6.69167C5.9556 5.25 5.58757 5.25 5.15941 5.42442C4.73125 5.59885 4.53743 5.78732 4.14978 6.16425C2.81761 7.4596 1.2852 9.66494 0.79295 12.6265C0.426697 14.8301 2.45945 16.5 4.73124 16.5H10.2688C12.5405 16.5 14.5733 14.8301 14.207 12.6265Z" fill="#FFE7BA" stroke="#D48806" stroke-width="1.25" stroke-linecap="round"/>
<path d="M8.05978 8.25C8.05978 7.90482 7.77996 7.625 7.43478 7.625C7.0896 7.625 6.80978 7.90482 6.80978 8.25L8.05978 8.25ZM6.80978 13.5C6.80978 13.8452 7.0896 14.125 7.43478 14.125C7.77996 14.125 8.05978 13.8452 8.05978 13.5H6.80978ZM8.18948 9.75321C8.39836 10.028 8.79046 10.0815 9.06527 9.87258C9.34007 9.6637 9.39352 9.2716 9.18464 8.99679L8.18948 9.75321ZM6.60208 12.0301C6.34487 11.7999 5.94974 11.8218 5.71955 12.079C5.48935 12.3362 5.51126 12.7313 5.76847 12.9615L6.60208 12.0301ZM7.43478 10.7995V10.1745C6.95334 10.1745 6.74761 10.0954 6.67528 10.0467C6.6498 10.0295 6.64538 10.0196 6.64284 10.0142C6.63801 10.0039 6.625 9.96963 6.625 9.89209H6H5.375C5.375 10.3443 5.53983 10.789 5.9769 11.0834C6.36108 11.3422 6.87275 11.4245 7.43478 11.4245V10.7995ZM6 9.89209H6.625C6.625 9.84502 6.64951 9.75107 6.79131 9.64644C6.93291 9.54196 7.15837 9.45845 7.43478 9.45845V8.83345V8.20845C6.91879 8.20845 6.42685 8.36192 6.04916 8.6406C5.67168 8.91912 5.375 9.35449 5.375 9.89209H6ZM9 11.8581H8.375C8.375 12.0011 8.32873 12.0698 8.21973 12.1353C8.07282 12.2235 7.81018 12.2918 7.43478 12.2918V12.9168V13.5418C7.92383 13.5418 8.4438 13.4588 8.86338 13.2068C9.32088 12.932 9.625 12.4713 9.625 11.8581H9ZM7.43478 10.7995V11.4245C7.92126 11.4245 8.16168 11.4999 8.26727 11.5688C8.30858 11.5957 8.32698 11.6199 8.33965 11.6461C8.35462 11.677 8.375 11.74 8.375 11.8581H9H9.625C9.625 11.3138 9.4225 10.8298 8.95012 10.5218C8.53397 10.2503 7.99178 10.1745 7.43478 10.1745V10.7995ZM7.43478 8.83345L8.05978 8.83345L8.05978 8.25L7.43478 8.25L6.80978 8.25L6.80978 8.83345L7.43478 8.83345ZM7.43478 12.9168H6.80978V13.5H7.43478H8.05978V12.9168H7.43478ZM7.43478 8.83345V9.45845C7.82071 9.45845 8.08601 9.61708 8.18948 9.75321L8.68706 9.375L9.18464 8.99679C8.79684 8.4866 8.12462 8.20845 7.43478 8.20845V8.83345ZM7.43478 12.9168V12.2918C7.047 12.2918 6.75193 12.1642 6.60208 12.0301L6.18527 12.4958L5.76847 12.9615C6.19007 13.3389 6.80172 13.5418 7.43478 13.5418V12.9168Z" fill="#D48806"/>
<path d="M3.94247 3.33215C3.78774 3.10694 3.56346 2.80125 4.02674 2.73153C4.50294 2.65988 4.99741 2.98586 5.48141 2.97916C5.91928 2.9731 6.14235 2.77889 6.38168 2.50161C6.6337 2.20963 7.02392 1.5 7.5 1.5C7.97608 1.5 8.3663 2.20963 8.61832 2.50161C8.85765 2.77889 9.08072 2.9731 9.51859 2.97916C10.0026 2.98586 10.4971 2.65988 10.9733 2.73153C11.4365 2.80125 11.2123 3.10694 11.0575 3.33215L10.3579 4.35048C10.0586 4.7861 9.90899 5.0039 9.59583 5.12695C9.28268 5.25 8.878 5.25 8.06865 5.25H6.93135C6.122 5.25 5.71732 5.25 5.40417 5.12695C5.09101 5.0039 4.94137 4.7861 4.64209 4.35048L3.94247 3.33215Z" fill="#FFE7BA" stroke="#D48806" stroke-width="1.25"/>
</svg>
