<svg width="16" height="18" viewBox="0 0 16 18" fill="none" xmlns="http://www.w3.org/2000/svg">
<path d="M0.875015 6.75C0.897852 6.14657 0.965089 5.53252 1.077 4.9126C1.16046 4.45031 1.20219 4.21917 1.34469 4.06099C1.4872 3.90281 1.83932 3.7906 2.54357 3.56618C4.27557 3.01424 5.74006 1.5 7.9987 1.5C10.2574 1.5 11.7236 3.01436 13.4563 3.56624C14.1604 3.79054 14.5125 3.90268 14.6551 4.06086C14.7976 4.21905 14.8394 4.45023 14.9229 4.91259C15.0348 5.53251 15.1021 6.14657 15.125 6.75M13.5838 12.75C12.5938 14.267 11.1329 15.4781 9.21101 16.2131C8.71085 16.4044 8.46077 16.5 8.00116 16.5C7.54155 16.5 7.29146 16.4044 6.79127 16.2131C4.8692 15.4781 3.40796 14.267 2.41751 12.75" stroke="white" stroke-width="1.5" stroke-linecap="round" stroke-linejoin="round"/>
<path d="M5.375 9L6.125 9.75M6.125 9.75L6.875 10.5M6.125 9.75L6.875 9M6.125 9.75L5.375 10.5" stroke="white" stroke-width="1.5" stroke-linecap="round"/>
<path d="M1.625 9L2.375 9.75M2.375 9.75L3.125 10.5M2.375 9.75L3.125 9M2.375 9.75L1.625 10.5" stroke="white" stroke-width="1.5" stroke-linecap="round"/>
<path d="M9.125 9L9.875 9.75M9.875 9.75L10.625 10.5M9.875 9.75L10.625 9M9.875 9.75L9.125 10.5" stroke="white" stroke-width="1.5" stroke-linecap="round"/>
<path d="M12.875 9L13.625 9.75M13.625 9.75L14.375 10.5M13.625 9.75L14.375 9M13.625 9.75L12.875 10.5" stroke="white" stroke-width="1.5" stroke-linecap="round"/>
</svg>
