<svg width="22" height="17" viewBox="0 0 22 17" fill="none" xmlns="http://www.w3.org/2000/svg">
<path d="M20.544 7.72037C20.848 8.14669 21 8.35985 21 8.67538C21 8.99092 20.848 9.20408 20.544 9.6304C19.1779 11.5459 15.6892 15.6754 11 15.6754C6.31078 15.6754 2.8221 11.5459 1.45604 9.6304C1.15201 9.20408 1 8.99092 1 8.67538C1 8.35985 1.15201 8.14669 1.45604 7.72037C2.8221 5.80483 6.31078 1.67538 11 1.67538C15.6892 1.67538 19.1779 5.80482 20.544 7.72037Z" stroke="#0069D1" stroke-width="1.5"/>
<path d="M14 8.67538C14 7.01853 12.6569 5.67538 11 5.67538C9.34315 5.67538 8 7.01853 8 8.67538C8 10.3322 9.34315 11.6754 11 11.6754C12.6569 11.6754 14 10.3322 14 8.67538Z" stroke="#0069D1" stroke-width="1.5"/>
</svg>
