<svg width="15" height="16" viewBox="0 0 15 16" fill="none" xmlns="http://www.w3.org/2000/svg">
<path d="M3.4502 7.94224C7.25468 0.851521 11.9919 0.769756 13.885 1.61521C14.7305 3.50828 14.6487 8.24555 7.55799 12.05C7.48446 11.6273 7.07551 10.5199 6.0279 9.47233C4.98028 8.42471 3.87292 8.01576 3.4502 7.94224Z" fill="#EFDBFF" stroke="#9254DE" stroke-width="1.25" stroke-linecap="round" stroke-linejoin="round"/>
<path d="M8.5127 11.7125C9.89158 12.3875 10.0388 13.5979 10.2298 14.75C10.2298 14.75 13.1178 12.6151 11.2705 9.68753" stroke="#9254DE" stroke-width="1.25" stroke-linecap="round" stroke-linejoin="round"/>
<path d="M3.78747 7.04518C3.11247 5.6663 1.90211 5.51908 0.75 5.32807C0.75 5.32807 2.88488 2.44009 5.81248 4.28742" stroke="#9254DE" stroke-width="1.25" stroke-linecap="round" stroke-linejoin="round"/>
<path d="M3.01356 10.1835C2.62969 10.5673 1.9771 11.6806 2.43775 13.0625C3.8197 13.5232 4.93294 12.8706 5.31682 12.4867" stroke="#9254DE" stroke-width="1.25" stroke-linecap="round" stroke-linejoin="round"/>
<path d="M11.4756 5.33755C11.4756 4.61268 10.888 4.02505 10.1631 4.02505C9.43821 4.02505 8.85059 4.61268 8.85059 5.33755C8.85059 6.06243 9.43821 6.65005 10.1631 6.65005C10.888 6.65005 11.4756 6.06243 11.4756 5.33755Z" stroke="#9254DE" stroke-width="1.25"/>
</svg>
