<svg width="17" height="18" viewBox="0 0 17 18" fill="none" xmlns="http://www.w3.org/2000/svg">
<path d="M9.79573 2.58313L11.1156 5.24466C11.2956 5.61515 11.7755 5.97053 12.1805 6.03858L14.5727 6.43932C16.1025 6.69639 16.4625 7.81544 15.3601 8.91937L13.5003 10.7945C13.1854 11.1121 13.0129 11.7246 13.1104 12.1631L13.6428 14.4844C14.0628 16.3217 13.0954 17.0325 11.483 16.0722L9.24079 14.7339C8.83583 14.4919 8.16841 14.4919 7.75595 14.7339L5.5137 16.0722C3.90888 17.0325 2.93399 16.3142 3.35394 14.4844L3.88638 12.1631C3.98387 11.7246 3.81139 11.1121 3.49642 10.7945L1.63663 8.91937C0.54175 7.81544 0.894211 6.69639 2.42404 6.43932L4.81628 6.03858C5.21373 5.97053 5.69368 5.61515 5.87366 5.24466L7.19352 2.58313C7.91344 1.13896 9.08331 1.13896 9.79573 2.58313Z" fill="#FFD591" stroke="#FFA940" stroke-width="1.5" stroke-linecap="round" stroke-linejoin="round"/>
</svg>
