<svg width="18" height="18" viewBox="0 0 18 18" fill="none" xmlns="http://www.w3.org/2000/svg">
<path d="M6.2818 2.25C6.12137 2.30995 5.96359 2.37534 5.80869 2.44595M15.5383 12.2258C15.6149 12.0599 15.6856 11.8907 15.75 11.7184M13.8741 14.5235C14.0029 14.4033 14.1273 14.2786 14.2472 14.1495M11.4517 16.0292C11.5972 15.9743 11.7406 15.915 11.8816 15.8513M9.11702 16.4954C8.94381 16.5014 8.76943 16.5014 8.59622 16.4954M5.84048 15.8553C5.97609 15.9163 6.11387 15.9733 6.25369 16.0263M3.50442 14.1906C3.60693 14.2992 3.71272 14.4048 3.82162 14.5071M1.97453 11.7484C2.03069 11.8967 2.0915 12.0427 2.15679 12.1862M1.50373 9.379C1.49886 9.22291 1.49887 9.06586 1.50373 8.90956M1.96908 6.55286C2.02426 6.40624 2.08398 6.26184 2.14808 6.11985M3.49202 4.10943C3.60051 3.99386 3.71269 3.88179 3.82838 3.77343" stroke="#9254DE" stroke-width="1.5" stroke-linecap="round" stroke-linejoin="round"/>
<path d="M10.125 9C10.125 9.62132 9.62132 10.125 9 10.125C8.37868 10.125 7.875 9.62132 7.875 9C7.875 8.37868 8.37868 7.875 9 7.875M10.125 9C10.125 8.37868 9.62132 7.875 9 7.875M10.125 9H12M9 7.875V4.5" stroke="#9254DE" stroke-width="1.5" stroke-linecap="round"/>
<path d="M16.5 9C16.5 4.85786 13.1421 1.5 9 1.5" stroke="#9254DE" stroke-width="1.5" stroke-linecap="round"/>
</svg>
